<?xml version="1.0" encoding="utf-8"?>
<!-- Generator: Adobe Illustrator 18.0.0, SVG Export Plug-In . SVG Version: 6.00 Build 0)  -->
<!DOCTYPE svg PUBLIC "-//W3C//DTD SVG 1.1//EN" "http://www.w3.org/Graphics/SVG/1.1/DTD/svg11.dtd">
<svg version="1.1" id="Layer_1" xmlns="http://www.w3.org/2000/svg" xmlns:xlink="http://www.w3.org/1999/xlink" x="0px" y="0px"
	 viewBox="0 0 113.4 113.4" enable-background="new 0 0 113.4 113.4" xml:space="preserve">
<g>
	<path fill="#939598" stroke="#939598" stroke-width="3" stroke-miterlimit="10" d="M30.9,56C14.7,63.1,3.4,79.2,3.4,98H9
		c0-17.8,11.6-33,27.7-38.2C34.7,58.8,32.7,57.5,30.9,56z"/>
	<path fill="#939598" stroke="#939598" stroke-width="3" stroke-miterlimit="10" d="M49.3,56.7c-13.2,0-23.9-10.7-23.9-23.9
		S36.1,8.9,49.3,8.9s23.9,10.7,23.9,23.9C73.3,46,62.5,56.7,49.3,56.7z M49.3,14.4C39.2,14.4,31,22.6,31,32.7S39.2,51,49.3,51
		s18.3-8.2,18.3-18.3C67.6,22.7,59.4,14.4,49.3,14.4z"/>
	<path fill="#939598" stroke="#939598" stroke-width="3" stroke-miterlimit="10" d="M81.2,65.1c-3.9-3.8-8.4-6.8-13.5-9
		c-1.8,1.5-3.8,2.7-5.9,3.8c5.4,1.8,10.2,4.6,14.3,8.3C77.7,66.9,79.4,65.9,81.2,65.1z"/>
	<path fill="#939598" d="M91.1,66.7c-11.5,0-20.7,9.3-20.7,20.7c0,11.5,9.3,20.7,20.7,20.7c11.5,0,20.7-9.3,20.7-20.7
		C111.8,76,102.5,66.7,91.1,66.7z M103.8,89.7c0,0.8-0.7,1.5-1.5,1.5h-7.8V99c0,0.8-0.7,1.5-1.5,1.5h-3.6c-0.8,0-1.5-0.7-1.5-1.5
		v-7.8H80c-0.8,0-1.5-0.7-1.5-1.5v-3.6c0-0.8,0.7-1.5,1.5-1.5h7.8v-7.8c0-0.8,0.7-1.5,1.5-1.5h3.6c0.8,0,1.5,0.7,1.5,1.5v7.8h7.8
		c0.8,0,1.5,0.7,1.5,1.5V89.7z"/>
</g>
</svg>
